<?xml version="1.0" encoding="utf-8"?>
<!-- Generator: Adobe Illustrator 28.0.0, SVG Export Plug-In . SVG Version: 6.00 Build 0)  -->
<svg version="1.1" id="_图层_1" xmlns="http://www.w3.org/2000/svg" xmlns:xlink="http://www.w3.org/1999/xlink" x="0px" y="0px"
	 viewBox="0 0 1549.3 595.3" style="enable-background:new 0 0 1549.3 595.3;" xml:space="preserve">
<style type="text/css">
	.st0{fill:url(#SVGID_1_);}
	.st1{fill:url(#SVGID_00000039837985658683587060000009722650121998461863_);}
	.st2{fill:url(#SVGID_00000049943646829411173400000009661699252054568337_);}
	.st3{fill:url(#SVGID_00000088104186753201687640000007115245344280431508_);}
	.st4{fill:url(#SVGID_00000049914384682168506250000002755229371408485762_);}
	.st5{fill:url(#SVGID_00000178893162100940882580000011882829452085637294_);}
	.st6{fill:url(#SVGID_00000165196080393491147740000013967517479836272002_);}
	.st7{fill:#FFFFFF;}
</style>
<g>
	
		<linearGradient id="SVGID_1_" gradientUnits="userSpaceOnUse" x1="377.5998" y1="604.8047" x2="136.7397" y2="166.6147" gradientTransform="matrix(1 0 0 -1 0 593.4646)">
		<stop  offset="0" style="stop-color:#D9BA59"/>
		<stop  offset="0.41" style="stop-color:#C98F39"/>
		<stop  offset="0.78" style="stop-color:#DFD06E"/>
		<stop  offset="1" style="stop-color:#C68B36"/>
	</linearGradient>
	<path class="st0" d="M503.1,114.1c0,0-71.8,7.2-194.4,122.6c-81.2,82-173.4,193-45.7,273.5c0,0-123.3-23.2-103.7-138.6
		c17.4-71.8,55.9-125.5,96.5-168.3c0,0-1.5-3.9-15.8-1.7c-9.1,1.9-27.6,8.8-50.7,8.6c0,0,18.6-4.6,20.9-6.8c0,0-11.7-3.9-26.4-0.1
		c-12.2,3.5-97.7,22.7-122.4,0.7h10.9l-1.4-7.9c0,0,32.7,9.8,71.3-3c22-6.5,97.9-19.9,159.4-51.1c44.9-23.9,44.9-20.4,72.1-53.3
		c2.7-4.3,14.1-11.2,25-4.1c9.8,6.5,14.1,15.5,24.2,9.5c10.1-6,47.7-28.8,58.2-48.4c1.9-3.8,20.6-1.4,25.5,9.2
		C511.6,65.4,527.9,94.6,503.1,114.1L503.1,114.1z"/>
	
		<linearGradient id="SVGID_00000174573649683336691990000010807728708914842769_" gradientUnits="userSpaceOnUse" x1="566.4845" y1="500.9821" x2="325.6245" y2="62.7922" gradientTransform="matrix(1 0 0 -1 0 593.4646)">
		<stop  offset="0" style="stop-color:#D9BA59"/>
		<stop  offset="0.41" style="stop-color:#C98F39"/>
		<stop  offset="0.78" style="stop-color:#DFD06E"/>
		<stop  offset="1" style="stop-color:#C68B36"/>
	</linearGradient>
	<path style="fill:url(#SVGID_00000174573649683336691990000010807728708914842769_);" d="M366.8,235.6c0,0,82.7-12.7,126.2,16
		c30.5,22.8,64.4,63.5,23.5,143.3c0,0,51.9-55.5,37.4-114.3C547.4,259.5,513.7,193.1,366.8,235.6L366.8,235.6z"/>
	
		<linearGradient id="SVGID_00000003063097453262854560000006667710562486502802_" gradientUnits="userSpaceOnUse" x1="458.3855" y1="560.4016" x2="217.5254" y2="122.2116" gradientTransform="matrix(1 0 0 -1 0 593.4646)">
		<stop  offset="0" style="stop-color:#D9BA59"/>
		<stop  offset="0.41" style="stop-color:#C98F39"/>
		<stop  offset="0.78" style="stop-color:#DFD06E"/>
		<stop  offset="1" style="stop-color:#C68B36"/>
	</linearGradient>
	
		<rect x="269.9" y="279.5" style="fill:url(#SVGID_00000003063097453262854560000006667710562486502802_);" width="88.1" height="32.6"/>
	
		<linearGradient id="SVGID_00000108303779976074266150000006991792816495604117_" gradientUnits="userSpaceOnUse" x1="576.0984" y1="495.6955" x2="335.2384" y2="57.5054" gradientTransform="matrix(1 0 0 -1 0 593.4646)">
		<stop  offset="0" style="stop-color:#D9BA59"/>
		<stop  offset="0.41" style="stop-color:#C98F39"/>
		<stop  offset="0.78" style="stop-color:#DFD06E"/>
		<stop  offset="1" style="stop-color:#C68B36"/>
	</linearGradient>
	
		<rect x="423.2" y="279.5" style="fill:url(#SVGID_00000108303779976074266150000006991792816495604117_);" width="88.1" height="32.6"/>
	
		<linearGradient id="SVGID_00000031892548997070935260000002783813744733649335_" gradientUnits="userSpaceOnUse" x1="540.9478" y1="515.0159" x2="300.0877" y2="76.8259" gradientTransform="matrix(1 0 0 -1 0 593.4646)">
		<stop  offset="0" style="stop-color:#D9BA59"/>
		<stop  offset="0.41" style="stop-color:#C98F39"/>
		<stop  offset="0.78" style="stop-color:#DFD06E"/>
		<stop  offset="1" style="stop-color:#C68B36"/>
	</linearGradient>
	<path style="fill:url(#SVGID_00000031892548997070935260000002783813744733649335_);" d="M287.3,305.6v95.8c0,0,103,23.9,205,0
		V295.8h-51.5v64.9l37,10.5c0,0-91.3,20.8-175.6,0l38.1-10.2v-57.3L287.3,305.6L287.3,305.6z"/>
	
		<linearGradient id="SVGID_00000127733420945646433500000007503914700698893975_" gradientUnits="userSpaceOnUse" x1="535.8817" y1="517.7937" x2="295.0316" y2="79.6137" gradientTransform="matrix(1 0 0 -1 0 593.4646)">
		<stop  offset="0" style="stop-color:#D9BA59"/>
		<stop  offset="0.41" style="stop-color:#C98F39"/>
		<stop  offset="0.78" style="stop-color:#DFD06E"/>
		<stop  offset="1" style="stop-color:#C68B36"/>
	</linearGradient>
	<path style="fill:url(#SVGID_00000127733420945646433500000007503914700698893975_);" d="M287.3,415.5v62.4h-17.4v33.7H358v-33.7
		h-18.9v-53.7C339.2,424.2,293.5,417.3,287.3,415.5L287.3,415.5z"/>
	
		<linearGradient id="SVGID_00000150823788938453098340000015402356220333270697_" gradientUnits="userSpaceOnUse" x1="655.9946" y1="451.7776" x2="415.1346" y2="13.5876" gradientTransform="matrix(1 0 0 -1 0 593.4646)">
		<stop  offset="0" style="stop-color:#D9BA59"/>
		<stop  offset="0.41" style="stop-color:#C98F39"/>
		<stop  offset="0.78" style="stop-color:#DFD06E"/>
		<stop  offset="1" style="stop-color:#C68B36"/>
	</linearGradient>
	<path style="fill:url(#SVGID_00000150823788938453098340000015402356220333270697_);" d="M493.9,415.5v62.4h17.4v33.7h-88.1v-33.7
		H442v-53.7C442,424.2,487.8,417.3,493.9,415.5L493.9,415.5z"/>
</g>
<g>
	<path class="st7" d="M873.7,178.4c-23.1-3.7-45.5-8.2-67.1-13.4v8.9h-45.8v13.4h92.8v17.9h-92.8v20.1H791c2.2-4.5,4.1-9.3,5.6-14.5
		h31.3c-0.8,5.2-2.6,10.1-5.6,14.5h48.1v19h-44.7c11.2,14.2,27.6,25.7,49.2,34.7v16.8c-11.2-2.2-21.2-5.6-30.2-10.1v10.1h-23.5v13.4
		H867v15.7h-45.8v30.2h11.2c2.2-6,4.1-13,5.6-21.2h21.2c-0.8,8.2-3,15.3-6.7,21.2h21.2V373H744v-17.9h19c-4.5-8.2-6.7-15.3-6.7-21.2
		h21.2c0.7,8.2,2.6,15.3,5.6,21.2h11.2v-30.2h-43.6v-15.7h43.6v-13.4h-24.6V288c-6.7,3-14.2,5.6-22.4,7.8v-16.8
		c18.6-8.2,33.2-19.7,43.6-34.7h-91.7c10.4,14.9,25,26.5,43.6,34.7v16.8c-5.2-1.5-12.7-4.1-22.4-7.8c-2.2-0.7-3.7-1.5-4.5-2.2v10.1
		h-21.2v13.4h42.5v15.7h-42.5V354l11.2-1.1c2.2-6,3.7-12.7,4.5-20.1h21.2c0,7.5-1.5,13.8-4.5,19l12.3-1.1v14.5
		c-38,7.4-77.9,10.8-119.7,10.1v-20.1h16.8c-3-6-4.9-13.4-5.6-22.4h21.2c0.7,9,2.2,16.4,4.5,22.4H668v-30.2h-43.6v-15.7H668v-13.4
		h-22.4v-10.1c-9,4.5-19,7.8-30.2,10.1v-16.8c21.6-9,38-20.5,49.2-34.7h-44.7v-19h48.1c-3-4.5-5.2-9.3-6.7-14.5h32.4
		c0.7,5.2,2.6,10.1,5.6,14.5h29.1v-20.1h-92.8v-17.9h92.8V174h-44.7V165c-18.6,4.5-41,8.9-67.1,13.4v-17.9
		c44.7-7.4,80.9-21.2,108.5-41.4h40.3c26.1,20.1,62.2,33.9,108.5,41.4L873.7,178.4L873.7,178.4z M682.5,262.3
		c-8.2,7.5-16.8,13.4-25.7,17.9h48.1C696.7,275.7,689.2,269.8,682.5,262.3L682.5,262.3z M745.1,140.4c-14.2,6.7-28.7,12.7-43.6,17.9
		h86.1c-8.2-2.2-20.1-7.1-35.8-14.5C748.9,142.3,746.6,141.2,745.1,140.4L745.1,140.4z M833.5,280.2c-9.7-4.5-18.3-10.4-25.7-17.9
		c-6.7,7.5-14.5,13.4-23.5,17.9H833.5L833.5,280.2z"/>
	<path class="st7" d="M902.8,313.8v-24.6h109.6v-26.8h38v26.8H1160v24.6h-109.6v66h-38v-66H902.8L902.8,313.8z M905,204.2v-21.2
		c29.8-11.2,49.6-30.6,59.3-58.2h36.9c-6.7,17.9-14.9,32.4-24.6,43.6v95h-35.8V193C931.1,197.4,919.2,201.2,905,204.2L905,204.2z
		 M1066.1,256.7c-26.1,0.8-38.8-12.3-38-39.1V212c-3,0-7.8,0.8-14.5,2.2c-7.5,0.8-13,1.5-16.8,2.2v-21.2c11.2-1.5,21.6-3.4,31.3-5.6
		v-64.9h35.8v52.6c23.8-11.2,41.7-25,53.7-41.4h36.9c-17.9,32.1-48.1,54.4-90.6,67.1v10.1c-0.8,13.4,5.2,19.8,17.9,19h30.2
		c11.2,0,16.8-5.2,16.8-15.7v-10.1h29.1v14.5c0,23.9-12.3,35.8-36.9,35.8L1066.1,256.7L1066.1,256.7z"/>
	<path class="st7" d="M1192.4,151.6v-20.1h252.7v20.1h-119.7c-2.2,6-4.5,11.2-6.7,15.7h102.9v70.4c0.7,24.6-10.4,36.5-33.6,35.8
		h-89.5c-3.7,4.5-7.8,9.3-12.3,14.5h134.2v19c-18.6,15.7-39.9,29.1-63.7,40.3c25.3,4.5,54.4,8.6,87.2,12.3v19
		c-55.2-4.5-96.6-11.2-124.1-20.1c-26.8,8.2-69,15.3-126.4,21.2v-20.1c37.3-4.5,66.3-9,87.2-13.4c-15.7-6.7-31.7-15.7-48.1-26.8
		c-11.2,4.5-23.9,7.8-38,10.1v-17.9c29.1-9.7,50.7-22.4,64.9-38h-40.3V167.3h62.6c3-4.5,4.8-9.7,5.6-15.7L1192.4,151.6L1192.4,151.6
		z M1369.1,307h-108.5c-1.5,0.8-3.4,1.9-5.6,3.4c-3,1.5-5.2,2.6-6.7,3.4h24.6c15.7,9,30.6,16,44.7,21.2
		C1335.6,327.6,1352.7,318.2,1369.1,307L1369.1,307z M1254,185.2v13.4H1387v-13.4H1254L1254,185.2z M1254,213.1v13.4H1387v-13.4
		H1254L1254,213.1z M1254,255.6h119.7c8.9,0.8,13.4-4.1,13.4-14.5H1254L1254,255.6L1254,255.6z"/>
</g>
<g>
	<polygon class="st7" points="747.2,395.5 722.9,395.5 707.4,428.7 691.9,395.5 667.6,395.5 695.9,450.1 664.5,510.4 688.7,510.4 
		707.4,472 726,510.4 750.3,510.4 718.8,450.1 	"/>
	<path class="st7" d="M975,431.1c-7,0-12.9,1.5-17.5,4.4c-1.6,1-3.2,2.2-4.7,3.5v-6.6h-20.6v78h20.6v-35.9c0-7.3,2.1-13.4,6.2-18.3
		c3.9-4.6,8-7,12.2-7c3,0,5.2,0.9,6.9,2.9c1.8,2.1,2.8,5.2,2.8,9.2v49h20.6V457c0-7.2-2.2-13.4-6.7-18.3
		C990.4,433.6,983.7,431.1,975,431.1L975,431.1z"/>
	<path class="st7" d="M1096.7,431.1c-10.2,0-19.2,3.8-26.6,11.2c-7.4,7.4-11.2,17.2-11.2,29.1s3.8,21.7,11.2,29.1
		c7.4,7.4,16.3,11.2,26.6,11.2s19.2-3.8,26.6-11.2c7.4-7.4,11.2-17.2,11.2-29.1s-3.8-21.7-11.2-29.1
		C1115.8,434.8,1106.9,431.1,1096.7,431.1L1096.7,431.1z M1112.6,471.4c0,7.2-1.7,12.5-5.1,15.8c-3.4,3.4-6.9,5-10.8,5
		s-7.4-1.6-10.8-5c-3.3-3.3-5-8.7-5-15.8s1.7-12.5,5.1-15.8c3.4-3.4,6.9-5,10.8-5s7.4,1.6,10.8,5
		C1110.9,458.9,1112.6,464.2,1112.6,471.4L1112.6,471.4z"/>
	<polygon class="st7" points="1226.5,480.3 1209.4,432.3 1187.6,432.3 1216.8,511.6 1236.2,511.6 1265.4,432.3 1243.6,432.3 	"/>
	<path class="st7" d="M1390.8,503.7c-1.4-1.8-2.5-3.5-3.1-5.2c-0.6-1.6-0.9-3.4-0.9-5.3v-34.3c0-8.6-2.8-15.5-8.2-20.5
		c-5.3-4.8-13.2-7.3-23.3-7.3c-9.2,0-16.8,2.3-22.7,6.8c-6.1,4.6-9.7,10.9-10.6,18.6l-0.6,4.6h21.5l0.8-3.1c0.6-2.5,1.7-4.3,3.3-5.6
		c1.1-0.9,3.3-1.9,8.3-1.9c6.8,0,8.5,1.6,8.9,2.1c1.2,1.6,1.9,3.1,2,4.6c-0.3,0.3-1.3,0.9-3.6,1.5c-4.2,1.2-9.1,2.2-14.7,3
		c-9.5,1.4-16.8,4.2-21.5,8.5c-5,4.5-7.6,10.6-7.6,18s2.9,13.5,8.5,17.6c5.3,3.8,11.7,5.8,19.2,5.8c5.1,0,10-0.9,14.6-2.8
		c2.2-0.9,4.3-2,6.3-3.4c0.6,1.5,1.4,2.7,2.4,3.7l1.2,1.2h25.2L1390.8,503.7L1390.8,503.7z M1366.1,476.3v5.9c-2,3.4-4.6,5.8-8,7.4
		c-3.8,1.8-7.3,2.7-10.4,2.7c-2.6,0-4.5-0.6-5.5-1.6c-1.1-1.1-1.6-2.3-1.6-3.7c0-1.9,0.6-3.4,1.8-4.8c0.4-0.5,2.4-2.1,9.8-3.1
		c5.5-0.9,9.6-1.6,12-2.3C1364.7,476.7,1365.4,476.5,1366.1,476.3z"/>
	<rect x="826.8" y="432.3" class="st7" width="20.6" height="78"/>
	<path class="st7" d="M837.2,397.2c-5.9,0-10.7,4.8-10.7,10.7s4.8,10.7,10.7,10.7s10.7-4.8,10.7-10.7S843.1,397.2,837.2,397.2z"/>
</g>
</svg>
