<?xml version="1.0" encoding="UTF-8"?>
<svg id="_图层_1" data-name="图层 1" xmlns="http://www.w3.org/2000/svg" xmlns:xlink="http://www.w3.org/1999/xlink" viewBox="0 0 1549.33 595.28">
  <defs>
    <style>
      .cls-1 {
        fill: #231815;
      }

      .cls-1, .cls-2, .cls-3, .cls-4, .cls-5, .cls-6, .cls-7, .cls-8 {
        stroke-width: 0px;
      }

      .cls-2 {
        fill: url(#_未命名的渐变_23-3);
      }

      .cls-3 {
        fill: url(#_未命名的渐变_23);
      }

      .cls-4 {
        fill: url(#_未命名的渐变_23-2);
      }

      .cls-5 {
        fill: url(#_未命名的渐变_23-7);
      }

      .cls-6 {
        fill: url(#_未命名的渐变_23-5);
      }

      .cls-7 {
        fill: url(#_未命名的渐变_23-6);
      }

      .cls-8 {
        fill: url(#_未命名的渐变_23-4);
      }
    </style>
    <linearGradient id="_未命名的渐变_23" data-name="未命名的渐变 23" x1="377.6" y1="-11.34" x2="136.74" y2="426.85" gradientUnits="userSpaceOnUse">
      <stop offset="0" stop-color="#d9ba59"/>
      <stop offset=".41" stop-color="#c98f39"/>
      <stop offset=".78" stop-color="#dfd06e"/>
      <stop offset="1" stop-color="#c68b36"/>
    </linearGradient>
    <linearGradient id="_未命名的渐变_23-2" data-name="未命名的渐变 23" x1="566.48" y1="92.48" x2="325.62" y2="530.67" xlink:href="#_未命名的渐变_23"/>
    <linearGradient id="_未命名的渐变_23-3" data-name="未命名的渐变 23" x1="458.38" y1="33.06" x2="217.52" y2="471.25" xlink:href="#_未命名的渐变_23"/>
    <linearGradient id="_未命名的渐变_23-4" data-name="未命名的渐变 23" x1="576.1" y1="97.77" x2="335.24" y2="535.96" xlink:href="#_未命名的渐变_23"/>
    <linearGradient id="_未命名的渐变_23-5" data-name="未命名的渐变 23" x1="540.95" y1="78.45" x2="300.09" y2="516.64" xlink:href="#_未命名的渐变_23"/>
    <linearGradient id="_未命名的渐变_23-6" data-name="未命名的渐变 23" x1="535.88" y1="75.67" x2="295.03" y2="513.85" xlink:href="#_未命名的渐变_23"/>
    <linearGradient id="_未命名的渐变_23-7" data-name="未命名的渐变 23" x1="656" y1="141.69" x2="415.14" y2="579.88" xlink:href="#_未命名的渐变_23"/>
  </defs>
  <g>
    <path class="cls-3" d="m503.14,114.06s-71.82,7.25-194.43,122.61c-81.25,81.98-173.39,192.98-45.71,273.5,0,0-123.33-23.22-103.74-138.57,17.41-71.82,55.86-125.51,96.49-168.31,0,0-1.54-3.85-15.82-1.68-9.11,1.9-27.61,8.84-50.74,8.57,0,0,18.64-4.62,20.95-6.8,0,0-11.7-3.94-26.39-.14-12.24,3.54-97.67,22.72-122.42.68h10.88l-1.36-7.89s32.65,9.79,71.28-2.99c22.04-6.53,97.94-19.86,159.42-51.15,44.89-23.94,44.89-20.4,72.09-53.32,2.72-4.35,14.15-11.15,25.03-4.08,9.79,6.53,14.15,15.51,24.21,9.52,10.07-5.99,47.67-28.84,58.25-48.43,1.87-3.81,20.64-1.36,25.54,9.25,4.9,10.61,21.22,39.81-3.54,59.22Z"/>
    <path class="cls-4" d="m366.75,235.57s82.7-12.7,126.23,15.96c30.47,22.85,64.43,63.48,23.51,143.28,0,0,51.94-55.5,37.43-114.26-6.53-21.04-40.26-87.42-187.17-44.98Z"/>
    <rect class="cls-2" x="269.9" y="279.46" width="88.15" height="32.65"/>
    <rect class="cls-8" x="423.18" y="279.46" width="88.15" height="32.65"/>
    <path class="cls-6" d="m287.31,305.58v95.76s103.02,23.94,204.95,0v-105.56h-51.51v64.93l37,10.52s-91.27,20.75-175.57,0l38.09-10.16v-57.31l-52.96,1.81Z"/>
    <path class="cls-7" d="m287.31,415.49v62.39h-17.41v33.73h88.15v-33.73h-18.86v-53.69s-45.71-6.89-51.87-8.71Z"/>
    <path class="cls-5" d="m493.92,415.49v62.39s17.41,0,17.41,0v33.73h-88.15v-33.73h18.86s0-53.69,0-53.69c0,0,45.71-6.89,51.87-8.71Z"/>
  </g>
  <g>
    <path class="cls-1" d="m873.74,178.44c-23.12-3.72-45.48-8.19-67.1-13.42v8.95h-45.85v13.42h92.82v17.89h-92.82v20.13h30.19c2.24-4.47,4.09-9.31,5.59-14.54h31.31c-.75,5.22-2.62,10.06-5.59,14.54h48.09v19.01h-44.73c11.18,14.17,27.57,25.72,49.2,34.67v16.77c-11.18-2.24-21.25-5.59-30.19-10.06v10.06h-23.48v13.42h45.85v15.66h-45.85v30.19h11.18c2.24-5.96,4.09-13.03,5.59-21.25h21.25c-.75,8.21-2.99,15.29-6.71,21.25h21.25v17.89h-129.72v-17.89h19.01c-4.47-8.19-6.71-15.27-6.71-21.25h21.25c.73,8.21,2.6,15.29,5.59,21.25h11.18v-30.19h-43.61v-15.66h43.61v-13.42h-24.6v-7.83c-6.71,2.99-14.17,5.59-22.37,7.83v-16.77c18.63-8.2,33.16-19.74,43.61-34.67h-91.7c10.43,14.92,24.97,26.47,43.61,34.67v16.77c-5.22-1.49-12.69-4.09-22.37-7.83-2.24-.73-3.74-1.49-4.47-2.24v10.06h-21.25v13.42h42.49v15.66h-42.49v29.07l11.18-1.12c2.24-5.96,3.72-12.67,4.47-20.13h21.25c0,7.46-1.5,13.8-4.47,19.01l12.3-1.12v14.54c-38.02,7.44-77.91,10.8-119.66,10.06v-20.13h16.77c-2.99-5.96-4.86-13.42-5.59-22.37h21.25c.73,8.95,2.24,16.41,4.47,22.37h11.18v-30.19h-43.61v-15.66h43.61v-13.42h-22.37v-10.06c-8.95,4.47-19.01,7.83-30.19,10.06v-16.77c21.61-8.95,38.02-20.5,49.2-34.67h-44.73v-19.01h48.08c-2.99-4.47-5.22-9.31-6.71-14.54h32.43c.73,5.22,2.6,10.06,5.59,14.54h29.07v-20.13h-92.82v-17.89h92.82v-13.42h-44.73v-8.95c-18.64,4.47-41.01,8.95-67.1,13.42v-17.89c44.73-7.44,80.88-21.25,108.47-41.38h40.26c26.09,20.13,62.24,33.93,108.47,41.38v17.89Zm-191.22,83.87c-8.21,7.46-16.77,13.42-25.72,17.89h48.09c-8.21-4.47-15.66-10.43-22.37-17.89Zm62.62-121.89c-14.17,6.71-28.71,12.69-43.61,17.89h86.11c-8.21-2.24-20.13-7.08-35.78-14.54-2.99-1.49-5.22-2.6-6.71-3.35Zm88.34,139.78c-9.7-4.47-18.28-10.43-25.72-17.89-6.71,7.46-14.54,13.42-23.48,17.89h49.2Z"/>
    <path class="cls-1" d="m902.81,313.75v-24.6h109.59v-26.84h38.02v26.84h109.59v24.6h-109.59v65.98h-38.02v-65.98h-109.59Zm2.24-109.59v-21.25c29.81-11.18,49.57-30.56,59.27-58.15h36.9c-6.71,17.89-14.92,32.43-24.6,43.61v95.05h-35.79v-70.45c-9.7,4.47-21.63,8.21-35.79,11.18Zm161.03,52.56c-26.11.75-38.77-12.3-38.02-39.14v-5.59c-2.99,0-7.83.75-14.54,2.24-7.46.75-13.05,1.5-16.77,2.24v-21.25c11.18-1.48,21.61-3.35,31.31-5.59v-64.86h35.78v52.56c23.85-11.18,41.74-24.97,53.68-41.38h36.9c-17.89,32.06-48.09,54.43-90.58,67.1v10.06c-.75,13.42,5.21,19.76,17.89,19.01h30.19c11.18,0,16.77-5.21,16.77-15.66v-10.06h29.08v14.54c0,23.87-12.3,35.79-36.9,35.79h-54.79Z"/>
    <path class="cls-1" d="m1192.45,151.61v-20.13h252.73v20.13h-119.66c-2.24,5.98-4.47,11.18-6.71,15.66h102.88v70.45c.73,24.6-10.45,36.54-33.55,35.78h-89.46c-3.74,4.47-7.83,9.33-12.3,14.54h134.19v19.01c-18.64,15.66-39.89,29.07-63.74,40.26,25.34,4.47,54.41,8.56,87.23,12.3v19.01c-55.18-4.47-96.56-11.18-124.13-20.13-26.84,8.19-68.97,15.27-126.37,21.25v-20.13c37.27-4.47,66.34-8.95,87.23-13.42-15.66-6.71-31.7-15.66-48.09-26.84-11.18,4.47-23.87,7.83-38.02,10.06v-17.89c29.08-9.68,50.69-22.37,64.86-38.02h-40.26v-106.24h62.62c2.97-4.47,4.84-9.68,5.59-15.66h-95.05Zm176.69,155.44h-108.47c-1.5.75-3.36,1.87-5.59,3.35-2.99,1.5-5.22,2.62-6.71,3.35h24.6c15.66,8.95,30.56,16.04,44.73,21.25,17.89-7.44,35.03-16.77,51.44-27.96Zm-115.18-121.89v13.42h133.07v-13.42h-133.07Zm0,27.96v13.42h133.07v-13.42h-133.07Zm0,42.5h119.66c8.95.75,13.42-4.09,13.42-14.54h-133.07v14.54Z"/>
  </g>
  <g>
    <polygon class="cls-1" points="747.16 395.53 722.89 395.53 707.39 428.67 691.89 395.53 667.62 395.53 695.93 450.14 664.48 510.37 688.73 510.37 707.39 471.95 726.05 510.37 750.3 510.37 718.85 450.14 747.16 395.53"/>
    <path class="cls-1" d="m975.03,431.1c-6.99,0-12.87,1.47-17.46,4.37-1.6,1.01-3.16,2.17-4.67,3.49v-6.62h-20.63v78.03h20.63v-35.89c0-7.29,2.09-13.43,6.2-18.26,3.94-4.63,8.04-6.99,12.18-6.99,2.97,0,5.16.94,6.89,2.94,1.83,2.14,2.76,5.24,2.76,9.2v48.99h20.63v-53.36c0-7.25-2.24-13.41-6.66-18.33-4.54-5.03-11.22-7.58-19.87-7.58Z"/>
    <path class="cls-1" d="m1096.69,431.1c-10.23,0-19.17,3.76-26.59,11.18-7.42,7.42-11.18,17.2-11.18,29.08s3.76,21.68,11.17,29.08c7.4,7.42,16.35,11.18,26.59,11.18s19.18-3.76,26.59-11.18c7.42-7.41,11.18-17.2,11.18-29.09s-3.76-21.66-11.18-29.09c-7.43-7.41-16.37-11.17-26.59-11.17Zm15.89,40.26c0,7.16-1.7,12.49-5.05,15.84-3.4,3.4-6.94,5.05-10.84,5.05s-7.45-1.65-10.84-5.05c-3.35-3.33-5.04-8.66-5.04-15.83s1.7-12.49,5.05-15.83c3.39-3.4,6.94-5.05,10.84-5.05s7.44,1.65,10.84,5.04c3.35,3.36,5.05,8.68,5.05,15.84Z"/>
    <polygon class="cls-1" points="1226.46 480.3 1209.37 432.34 1187.55 432.34 1216.76 511.62 1236.17 511.62 1265.37 432.34 1243.55 432.34 1226.46 480.3"/>
    <path class="cls-1" d="m1390.78,503.74c-1.41-1.75-2.46-3.5-3.14-5.21-.63-1.57-.95-3.37-.95-5.34v-34.31c0-8.64-2.76-15.53-8.2-20.49-5.34-4.84-13.19-7.29-23.33-7.29-9.19,0-16.84,2.27-22.74,6.76-6.09,4.62-9.66,10.9-10.62,18.65l-.57,4.58h21.53l.77-3.09c.62-2.48,1.7-4.32,3.31-5.63,1.05-.86,3.34-1.88,8.33-1.88,6.79,0,8.53,1.62,8.91,2.11,1.2,1.6,1.86,3.14,1.98,4.59-.35.28-1.31.88-3.58,1.52-4.18,1.19-9.14,2.2-14.74,3-9.52,1.36-16.75,4.22-21.49,8.49-5.04,4.53-7.59,10.59-7.59,18s2.87,13.53,8.54,17.64c5.26,3.83,11.73,5.77,19.25,5.77,5.08,0,10-.94,14.61-2.78,2.24-.89,4.35-2.02,6.3-3.36.59,1.47,1.41,2.72,2.42,3.73l1.19,1.17h25.16l-5.33-6.63Zm-24.72-27.46v5.85c-2.03,3.38-4.64,5.8-7.97,7.39-3.79,1.81-7.29,2.72-10.41,2.72-2.57,0-4.48-.56-5.54-1.62-1.1-1.1-1.61-2.27-1.61-3.67,0-1.91.56-3.42,1.76-4.76.42-.47,2.37-2.07,9.75-3.06,5.51-.85,9.55-1.61,12-2.28.67-.18,1.35-.37,2.02-.57Z"/>
    <rect class="cls-1" x="826.84" y="432.34" width="20.63" height="78.03"/>
    <path class="cls-1" d="m837.16,397.18c-5.92,0-10.74,4.82-10.74,10.74s4.82,10.74,10.74,10.74,10.74-4.82,10.74-10.74-4.82-10.74-10.74-10.74Z"/>
  </g>
</svg>